<?xml version="1.0" standalone="no"?>
<!DOCTYPE svg PUBLIC "-//W3C//DTD SVG 20010904//EN"
 "http://www.w3.org/TR/2001/REC-SVG-20010904/DTD/svg10.dtd">
<svg version="1.0" xmlns="http://www.w3.org/2000/svg"
 width="512.000000pt" height="512.000000pt" viewBox="0 0 512.000000 512.000000"
 preserveAspectRatio="xMidYMid meet">
<metadata>
Created by potrace 1.11, written by Peter Selinger 2001-2013
</metadata>
<g transform="translate(0.000000,512.000000) scale(0.100000,-0.100000)"
fill="#000000" stroke="none">
<path d="M2198 4797 c9 -68 8 -265 -2 -347 -50 -427 -300 -956 -705 -1490 -36
-47 -67 -87 -71 -90 -3 -3 -23 -29 -45 -57 -21 -29 -41 -51 -43 -48 -4 4 -6
20 -17 165 -13 172 -57 339 -131 497 -41 87 -54 97 -54 46 -1 -95 -71 -336
-148 -503 -16 -36 -86 -181 -156 -322 -69 -142 -126 -263 -126 -271 0 -7 -4
-17 -9 -23 -19 -20 -92 -258 -107 -348 -3 -21 -8 -48 -10 -60 -17 -87 -23
-286 -11 -396 41 -373 267 -707 687 -1016 72 -53 255 -176 295 -198 17 -9 51
-30 78 -46 26 -16 47 -26 47 -23 0 4 -18 50 -40 103 -41 100 -83 237 -95 305
-3 22 -9 54 -11 70 -9 56 -11 227 -2 284 26 173 96 335 235 544 98 147 210
359 239 452 2 6 14 39 28 75 13 36 34 104 47 150 12 47 24 87 26 89 17 22 111
-195 127 -291 4 -18 8 -46 11 -63 7 -43 7 -181 0 -245 l-6 -55 21 25 c148 177
277 476 324 751 29 169 40 353 26 447 -4 23 -4 42 -1 42 14 0 141 -104 211
-172 332 -321 563 -766 644 -1244 24 -138 30 -227 30 -389 -1 -136 -4 -183
-19 -295 -6 -38 -6 -39 -29 -146 -19 -91 -78 -264 -121 -359 l-34 -75 107 66
c625 385 1004 853 1112 1374 11 58 24 132 28 165 12 106 6 365 -12 475 -76
479 -329 982 -712 1421 -88 101 -210 219 -226 219 -4 0 1 -19 11 -42 17 -41
33 -102 47 -178 18 -101 7 -283 -24 -385 -17 -55 -59 -129 -100 -175 l-40 -45
-11 45 c-7 25 -33 108 -58 185 -190 578 -513 1033 -928 1308 -78 52 -189 110
-262 138 -21 8 -22 7 -15 -44z"/>
</g>
</svg>
